#!OML:ASF E:\Style4\Style4.ASF
:FULLY-SPECIFIED
:DEGREES
2897
root 0.0501526 18.2125 -0.36472 7.04454 0.324602 1.1971
lowerback 6.33233 2.39419 0.412366
upperback 5.27434 3.19508 0.238205
thorax 1.90029 1.60577 -0.130182
lowerneck 4.37062 -4.44755 -5.57283
upperneck -5.82863 -6.00752 5.40968
head -2.28496 -3.04131 2.92407
rclavicle 1.98785e-014 -3.57812e-015
rhumerus 46.5133 15.4014 -40.8366
rradius 100.391
rwrist -65.4203
rhand -41.7953 18.7808
rfingers 7.12502
rthumb -14.698 -10.6782
lclavicle 1.98785e-014 -3.57812e-015
lhumerus 53.7674 -21.3635 45.0267
lradius 100.365
lwrist 70.8811
lhand -31.5808 43.7323
lfingers 7.12502
lthumb -4.84398 73.6569
rfemur -12.5951 -0.740138 18.357
rtibia 19.4851
rfoot -13.4569 -21.9387
rtoes -5.70464
lfemur -12.3591 -1.33587 -19.5899
ltibia 18.6887
lfoot -14.3773 13.8662
ltoes -13.5236
2898
root 0.0509074 18.217 -0.379824 7.1486 0.270043 1.06592
lowerback 6.39387 2.39965 0.515895
upperback 5.35285 3.20591 0.294519
thorax 1.95033 1.61329 -0.131077
lowerneck 4.50876 -4.46899 -5.49046
upperneck -5.92746 -6.04081 5.31486
head -2.34592 -3.05772 2.88657
rclavicle -3.37934e-014 7.55382e-015
rhumerus 46.7416 15.3479 -40.1284
rradius 99.81
rwrist -65.8006
rhand -41.9036 19.1056
rfingers 7.12502
rthumb -14.8023 -10.3457
lclavicle -3.37934e-014 7.55382e-015
lhumerus 53.9496 -21.1354 44.5202
lradius 99.9508
lwrist 71.3476
lhand -31.3257 43.9914
lfingers 7.12502
lthumb -4.59764 73.9215
rfemur -12.685 -0.614705 18.4933
rtibia 19.3177
rfoot -13.3424 -21.9516
rtoes -5.55089
lfemur -12.5431 -1.3588 -19.4424
ltibia 18.7245
lfoot -14.3339 13.9426
ltoes -13.4731
2899
root 0.0511822 18.2208 -0.39421 7.23788 0.194184 0.963974
lowerback 6.44019 2.40147 0.554897
upperback 5.45211 3.20894 0.347107
thorax 2.02695 1.61522 -0.0982083
lowerneck 4.64462 -4.47118 -5.38151
upperneck -6.05851 -6.04657 5.20446
head -2.42015 -3.06023 2.83957
rclavicle -4.81059e-014 -5.1684e-015
rhumerus 47.034 15.2111 -39.5327
rradius 99.2455
rwrist -66.3767
rhand -41.6685 18.477
rfingers 7.12502
rthumb -14.5758 -10.9909
lclavicle -4.81059e-014 -5.1684e-015
lhumerus 54.1437 -20.9265 43.9975
lradius 99.3166
lwrist 71.4257
lhand -30.715 43.7255
lfingers 7.12502
lthumb -4.00797 73.6676
rfemur -12.7531 -0.4435 18.5953
rtibia 19.1299
rfoot -13.2546 -21.9961
rtoes -5.20256
lfemur -12.7204 -1.35828 -19.3275
ltibia 18.7773
lfoot -14.3005 13.9939
ltoes -13.2523
2900
root 0.0538632 18.2237 -0.408753 7.32829 0.152078 0.91476
lowerback 6.43357 2.39487 0.591613
upperback 5.5838 3.20058 0.37171
thorax 2.1681 1.61211 -0.088795
lowerneck 4.73906 -4.45553 -5.35494
upperneck -6.1217 -6.02777 5.1904
head -2.46101 -3.05163 2.83556
rclavicle -1.98785e-014 -3.97569e-016
rhumerus 47.3675 15.0249 -38.9284
rradius 98.7274
rwrist -66.9864
rhand -41.7695 17.4011
rfingers 7.12502
rthumb -14.6731 -12.0597
lclavicle -1.98785e-014 -3.97569e-016
lhumerus 54.3946 -20.7948 43.4358
lradius 98.4276
lwrist 71.2635
lhand -29.8763 43.1836
lfingers 7.12502
lthumb -3.19802 73.1394
rfemur -12.8217 -0.296438 18.6241
rtibia 18.9574
rfoot -13.2197 -22.0524
rtoes -4.75253
lfemur -12.8855 -1.34437 -19.2789
ltibia 18.804
lfoot -14.2896 13.957
ltoes -12.8048
2901
root 0.0582089 18.2275 -0.425148 7.4234 0.112184 0.93578
lowerback 6.47328 2.38443 0.588609
upperback 5.69456 3.18612 0.364149
thorax 2.26153 1.60524 -0.0928126
lowerneck 4.77721 -4.4503 -5.32183
upperneck -6.07073 -6.02131 5.18686
head -2.45238 -3.04972 2.82811
rclavicle -4.92986e-014 1.31198e-014
rhumerus 47.6451 14.9493 -38.3014
rradius 98.1966
rwrist -67.5688
rhand -41.9819 17.1292
rfingers 7.12502
rthumb -14.8777 -12.3166
lclavicle -4.92986e-014 1.31198e-014
lhumerus 54.5891 -20.6634 42.8936
lradius 97.725
lwrist 71.5803
lhand -29.4227 42.9768
lfingers 7.12502
lthumb -2.75995 72.9387
rfemur -12.9254 -0.283992 18.5795
rtibia 18.8281
rfoot -13.128 -22.0397
rtoes -4.7362
lfemur -13.0374 -1.34918 -19.3158
ltibia 18.792
lfoot -14.2237 13.9818
ltoes -12.3534
2902
root 0.0609422 18.231 -0.442009 7.49653 0.0199155 0.912963
lowerback 6.56807 2.38776 0.599439
upperback 5.79024 3.19068 0.364915
thorax 2.30929 1.60803 -0.0998103
lowerneck 4.89872 -4.45198 -5.19373
upperneck -6.12547 -6.02323 5.11067
head -2.49843 -3.05202 2.78611
rclavicle 3.47873e-014 -4.77083e-015
rhumerus 47.9101 14.9313 -37.6911
rradius 97.5858
rwrist -68.2787
rhand -41.8764 17.9111
rfingers 7.12502
rthumb -14.7761 -11.5422
lclavicle 3.47873e-014 -4.77083e-015
lhumerus 54.742 -20.519 42.3896
lradius 97.2516
lwrist 72.25
lhand -29.3227 43.1978
lfingers 7.12502
lthumb -2.66335 73.1609
rfemur -13.0318 -0.193693 18.5869
rtibia 18.7292
rfoot -13.0389 -22.0215
rtoes -4.59946
lfemur -13.1478 -1.34202 -19.3016
ltibia 18.7577
lfoot -14.1924 14.0663
ltoes -12.0927
